<?xml version="1.0" encoding="UTF-8" standalone="no"?>
<svg width="102px" height="102px" viewBox="0 0 102 102" version="1.1" xmlns="http://www.w3.org/2000/svg" xmlns:xlink="http://www.w3.org/1999/xlink" xmlns:sketch="http://www.bohemiancoding.com/sketch/ns">
    <!-- Generator: Sketch 3.3.3 (12081) - http://www.bohemiancoding.com/sketch -->
    <title>bomb</title>
    <desc>Created with Sketch.</desc>
    <defs></defs>
    <g id="Sprites" stroke="none" stroke-width="1" fill="none" fill-rule="evenodd" sketch:type="MSPage">
        <g id="bomb" sketch:type="MSLayerGroup" transform="translate(1.000000, 0.000000)">
            <path d="M84.4308036,13.0022321 L86.9977679,15.5691964 L73.3816964,29.1294643 L77.1763393,32.9241071 C77.8831845,33.6309524 78.2366071,34.4773065 78.2366071,35.4631696 C78.2366071,36.4490327 77.8831845,37.2953869 77.1763393,38.0022321 L73.6049107,41.5736607 C76.9159226,47.563244 78.5714286,53.9434524 78.5714286,60.7142857 C78.5714286,66.0342262 77.5390625,71.1216518 75.4743304,75.9765625 C73.4095982,80.8314732 70.6194196,85.0167411 67.1037946,88.5323661 C63.5881696,92.0479911 59.4029018,94.8381696 54.5479911,96.9029018 C49.6930804,98.9676339 44.6056548,100 39.2857143,100 C33.9657738,100 28.8783482,98.9676339 24.0234375,96.9029018 C19.1685268,94.8381696 14.9832589,92.0479911 11.4676339,88.5323661 C7.95200893,85.0167411 5.16183036,80.8314732 3.09709821,75.9765625 C1.03236607,71.1216518 0,66.0342262 0,60.7142857 C0,55.3943452 1.03236607,50.3069196 3.09709821,45.4520089 C5.16183036,40.5970982 7.95200893,36.4118304 11.4676339,32.8962054 C14.9832589,29.3805804 19.1685268,26.5904018 24.0234375,24.5256696 C28.8783482,22.4609375 33.9657738,21.4285714 39.2857143,21.4285714 C46.0565476,21.4285714 52.436756,23.0840774 58.4263393,26.3950893 L61.9977679,22.8236607 C62.7046131,22.1168155 63.5509673,21.7633929 64.5368304,21.7633929 C65.5226935,21.7633929 66.3690476,22.1168155 67.0758929,22.8236607 L70.8705357,26.6183036 L84.4308036,13.0022321 Z" id="Shape" fill="#000000" sketch:type="MSShapeGroup"></path>
            <g id="fire" transform="translate(75.000000, 0.000000)" fill="#E74C3C" sketch:type="MSShapeGroup">
                <path d="M9.87723214,9.87723214 C9.50520833,10.249256 9.09598214,10.4352679 8.64955357,10.4352679 C8.16592262,10.4352679 7.73809524,10.249256 7.36607143,9.87723214 L2.28794643,4.85491071 C1.953125,4.4828869 1.78571429,4.05505952 1.78571429,3.57142857 C1.78571429,3.08779762 1.953125,2.65997024 2.28794643,2.28794643 C2.65997024,1.953125 3.08779762,1.78571429 3.57142857,1.78571429 C4.05505952,1.78571429 4.4828869,1.953125 4.85491071,2.28794643 L9.87723214,7.36607143 C10.249256,7.70089286 10.4352679,8.11941964 10.4352679,8.62165179 C10.4352679,9.12388393 10.249256,9.54241071 9.87723214,9.87723214 L9.87723214,9.87723214 Z" id="Path"></path>
                <path d="M22.7120536,22.7120536 C22.3028274,23.046875 21.875,23.2142857 21.4285714,23.2142857 C20.9821429,23.2142857 20.5543155,23.046875 20.1450893,22.7120536 L15.1227679,17.6339286 C14.750744,17.2991071 14.5647321,16.8805804 14.5647321,16.3783482 C14.5647321,15.8761161 14.750744,15.4575893 15.1227679,15.1227679 C15.4575893,14.750744 15.8761161,14.5647321 16.3783482,14.5647321 C16.8805804,14.5647321 17.2991071,14.750744 17.6339286,15.1227679 L22.7120536,20.1450893 C23.046875,20.5171131 23.2142857,20.9449405 23.2142857,21.4285714 C23.2142857,21.9122024 23.046875,22.3400298 22.7120536,22.7120536 L22.7120536,22.7120536 Z" id="Path"></path>
                <path d="M25,12.5 C25,13.0208333 24.8325893,13.4486607 24.4977679,13.7834821 C24.1629464,14.1183036 23.735119,14.2857143 23.2142857,14.2857143 L17.8571429,14.2857143 C17.3363095,14.2857143 16.9084821,14.1183036 16.5736607,13.7834821 C16.2388393,13.4486607 16.0714286,13.0208333 16.0714286,12.5 C16.0714286,11.9791667 16.2388393,11.5513393 16.5736607,11.2165179 C16.9084821,10.8816964 17.3363095,10.7142857 17.8571429,10.7142857 L23.2142857,10.7142857 C23.735119,10.7142857 24.1629464,10.8816964 24.4977679,11.2165179 C24.8325893,11.5513393 25,11.9791667 25,12.5 L25,12.5 Z" id="Path"></path>
                <path d="M14.2857143,1.78571429 L14.2857143,7.14285714 C14.2857143,7.66369048 14.1183036,8.09151786 13.7834821,8.42633929 C13.4486607,8.76116071 13.0208333,8.92857143 12.5,8.92857143 C11.9791667,8.92857143 11.5513393,8.76116071 11.2165179,8.42633929 C10.8816964,8.09151786 10.7142857,7.66369048 10.7142857,7.14285714 L10.7142857,1.78571429 C10.7142857,1.26488095 10.8816964,0.837053571 11.2165179,0.502232143 C11.5513393,0.167410714 11.9791667,0 12.5,0 C13.0208333,0 13.4486607,0.167410714 13.7834821,0.502232143 C14.1183036,0.837053571 14.2857143,1.26488095 14.2857143,1.78571429 L14.2857143,1.78571429 Z" id="Path"></path>
                <path d="M22.7120536,4.85491071 L17.6339286,9.87723214 C17.2619048,10.249256 16.8526786,10.4352679 16.40625,10.4352679 C15.922619,10.4352679 15.4947917,10.249256 15.1227679,9.87723214 C14.750744,9.54241071 14.5647321,9.12388393 14.5647321,8.62165179 C14.5647321,8.11941964 14.750744,7.70089286 15.1227679,7.36607143 L20.1450893,2.28794643 C20.5171131,1.953125 20.9449405,1.78571429 21.4285714,1.78571429 C21.9122024,1.78571429 22.3400298,1.953125 22.7120536,2.28794643 C23.046875,2.65997024 23.2142857,3.08779762 23.2142857,3.57142857 C23.2142857,4.05505952 23.046875,4.4828869 22.7120536,4.85491071 L22.7120536,4.85491071 Z" id="Path"></path>
            </g>
        </g>
    </g>
</svg>