<?xml version="1.0" encoding="UTF-8" standalone="no"?>
<svg width="79px" height="79px" viewBox="0 0 79 79" version="1.1" xmlns="http://www.w3.org/2000/svg" xmlns:xlink="http://www.w3.org/1999/xlink" xmlns:sketch="http://www.bohemiancoding.com/sketch/ns">
    <!-- Generator: Sketch 3.3.3 (12081) - http://www.bohemiancoding.com/sketch -->
    <title>coin</title>
    <desc>Created with Sketch.</desc>
    <defs>
        <filter x="-50%" y="-50%" width="200%" height="200%" filterUnits="objectBoundingBox" id="filter-1">
            <feOffset dx="0" dy="1" in="SourceAlpha" result="shadowOffsetOuter1"></feOffset>
            <feGaussianBlur stdDeviation="1" in="shadowOffsetOuter1" result="shadowBlurOuter1"></feGaussianBlur>
            <feColorMatrix values="0 0 0 0 0   0 0 0 0 0   0 0 0 0 0  0 0 0 0.35 0" in="shadowBlurOuter1" type="matrix" result="shadowMatrixOuter1"></feColorMatrix>
            <feMerge>
                <feMergeNode in="shadowMatrixOuter1"></feMergeNode>
                <feMergeNode in="SourceGraphic"></feMergeNode>
            </feMerge>
        </filter>
    </defs>
    <g id="Sprites" stroke="none" stroke-width="1" fill="none" fill-rule="evenodd" sketch:type="MSPage">
        <g id="coin" sketch:type="MSLayerGroup" transform="translate(2.000000, 1.000000)">
            <circle stroke="#FFFFFF" stroke-width="2" fill="#F1C40F" filter="url(#filter-1)" sketch:type="MSShapeGroup" cx="37.5" cy="37.5" r="37.5"></circle>
            <path d="M47.8111267,44.0982056 C47.8111267,46.1734113 47.0329362,47.8861932 45.476532,49.2366028 C43.9201277,50.5870124 41.745772,51.4376814 38.9533997,51.7886353 L38.9533997,57.0986938 L36.000824,57.0986938 L36.000824,51.9946289 C34.2918311,51.9946289 32.636269,51.8611158 31.0340881,51.5940857 C29.4319073,51.3270555 28.1196645,50.9570336 27.0973206,50.4840088 L27.0973206,46.9134521 C28.3638064,47.4780302 29.8248208,47.9396039 31.4804077,48.2981873 C33.1359946,48.6567706 34.642785,48.8360596 36.000824,48.8360596 L36.000824,38.7652588 C32.8727566,37.7734325 30.6793276,36.6214055 29.4204712,35.3091431 C28.1616148,33.9968806 27.532196,32.303172 27.532196,30.2279663 C27.532196,28.2290549 28.3065718,26.5887515 29.8553467,25.3070068 C31.4041215,24.0252621 33.4525935,23.2470717 36.000824,22.9724121 L36.000824,18.8067627 L38.9533997,18.8067627 L38.9533997,22.9266357 C41.7610309,23.0029301 44.4694389,23.5674996 47.0787048,24.6203613 L45.8885193,27.6187134 C43.6149483,26.7184403 41.3032649,26.184388 38.9533997,26.0165405 L38.9533997,35.9500122 C41.3490415,36.7129555 43.1419313,37.456814 44.3321228,38.1816101 C45.5223143,38.9064062 46.3996859,39.7380019 46.9642639,40.6764221 C47.5288419,41.6148423 47.8111267,42.7554254 47.8111267,44.0982056 L47.8111267,44.0982056 Z M43.9201355,44.395752 C43.9201355,43.2971136 43.5806308,42.4082981 42.9016113,41.7292786 C42.2225918,41.0502591 40.9065344,40.3750644 38.9533997,39.7036743 L38.9533997,48.6071777 C42.2645734,48.1494118 43.9201355,46.7456172 43.9201355,44.395752 L43.9201355,44.395752 Z M31.4002991,30.1821899 C31.4002991,31.3418637 31.7436184,32.2726405 32.4302673,32.9745483 C33.1169163,33.6764561 34.3070899,34.3402068 36.000824,34.9658203 L36.000824,26.1080933 C34.4901963,26.3522351 33.3457986,26.8290675 32.5675964,27.5386047 C31.7893943,28.248142 31.4002991,29.1293282 31.4002991,30.1821899 L31.4002991,30.1821899 Z" id="$" fill="#FFFFFF" sketch:type="MSShapeGroup"></path>
        </g>
    </g>
</svg>